<svg width="82" height="21" viewBox="0 0 82 21" fill="none" xmlns="http://www.w3.org/2000/svg">
<path d="M15.5 16.36V20H0.324V0.399999H15.136V4.04H4.832V8.296H13.932V11.824H4.832V16.36H15.5ZM27.9572 4.712C29.8238 4.712 31.3265 5.272 32.4652 6.392C33.6225 7.512 34.2012 9.17333 34.2012 11.376V20H29.8332V12.048C29.8332 10.8533 29.5718 9.96667 29.0492 9.388C28.5265 8.79067 27.7705 8.492 26.7812 8.492C25.6798 8.492 24.8025 8.83733 24.1492 9.528C23.4958 10.2 23.1692 11.208 23.1692 12.552V20H18.8012V4.936H22.9732V6.7C23.5518 6.06533 24.2705 5.58 25.1292 5.244C25.9878 4.88933 26.9305 4.712 27.9572 4.712ZM52.8391 4.936L46.4831 20H41.9751L35.6471 4.936H40.1551L44.3271 15.184L48.6391 4.936H52.8391ZM68.9673 12.524C68.9673 12.58 68.9393 12.972 68.8833 13.7H57.4873C57.6926 14.6333 58.178 15.3707 58.9433 15.912C59.7086 16.4533 60.6606 16.724 61.7993 16.724C62.5833 16.724 63.274 16.612 63.8713 16.388C64.4873 16.1453 65.0566 15.772 65.5793 15.268L67.9033 17.788C66.4846 19.412 64.4126 20.224 61.6873 20.224C59.9886 20.224 58.486 19.8973 57.1793 19.244C55.8726 18.572 54.8646 17.648 54.1553 16.472C53.446 15.296 53.0913 13.9613 53.0913 12.468C53.0913 10.9933 53.4366 9.668 54.1273 8.492C54.8366 7.29733 55.798 6.37333 57.0113 5.72C58.2433 5.048 59.6153 4.712 61.1273 4.712C62.602 4.712 63.9366 5.02933 65.1313 5.664C66.326 6.29867 67.2593 7.21333 67.9313 8.408C68.622 9.584 68.9673 10.956 68.9673 12.524ZM61.1553 8.016C60.166 8.016 59.3353 8.296 58.6633 8.856C57.9913 9.416 57.5806 10.1813 57.4313 11.152H64.8513C64.702 10.2 64.2913 9.444 63.6193 8.884C62.9473 8.30533 62.126 8.016 61.1553 8.016ZM76.0474 6.924C76.57 6.196 77.27 5.64533 78.1474 5.272C79.0434 4.89867 80.07 4.712 81.2274 4.712V8.744C80.742 8.70667 80.4154 8.688 80.2474 8.688C78.9967 8.688 78.0167 9.04267 77.3074 9.752C76.598 10.4427 76.2434 11.488 76.2434 12.888V20H71.8754V4.936H76.0474V6.924Z" fill="white"/>
</svg>
