<svg width="44" height="44" viewBox="0 0 44 44" fill="none" xmlns="http://www.w3.org/2000/svg">
<rect width="44" height="44" rx="8" fill="#EFF9FF"/>
<path d="M32 22C32 27.5228 27.5228 32 22 32C16.4772 32 12 27.5228 12 22C12 16.4772 16.4772 12 22 12C27.5228 12 32 16.4772 32 22Z" fill="#035E89"/>
<path fill-rule="evenodd" clip-rule="evenodd" d="M22 17.25C22.4142 17.25 22.75 17.5858 22.75 18V21.6893L25.0303 23.9697C25.3232 24.2626 25.3232 24.7374 25.0303 25.0303C24.7374 25.3232 24.2626 25.3232 23.9697 25.0303L21.4697 22.5303C21.329 22.3897 21.25 22.1989 21.25 22V18C21.25 17.5858 21.5858 17.25 22 17.25Z" fill="white"/>
</svg>
