<svg width="44" height="44" viewBox="0 0 44 44" fill="none" xmlns="http://www.w3.org/2000/svg">
<rect width="44" height="44" rx="8" fill="#EFF9FF"/>
<path d="M19.9496 26.0503C20.8806 25.1192 21.3461 24.6537 21.9209 24.6234C21.9735 24.6206 22.0261 24.6206 22.0787 24.6234C22.6535 24.6537 23.119 25.1192 24.0501 26.0503C26.0759 28.0761 27.0888 29.089 26.8053 29.963C26.7809 30.0381 26.7506 30.1112 26.7147 30.1815C26.2973 31 24.8648 31 21.9998 31C19.1348 31 17.7023 31 17.2849 30.1815C17.249 30.1112 17.2187 30.0381 17.1944 29.963C16.9108 29.089 17.9237 28.0761 19.9496 26.0503Z" fill="#035E89"/>
<path d="M24 13H20C16.2288 13 14.3431 13 13.1716 14.1716C12 15.3431 12 17.2288 12 21C12 24.7712 12 26.6569 13.1716 27.8284C13.4138 28.0706 13.6864 28.2627 14 28.4151C14.4814 28.6491 15.0592 28.7895 15.7708 28.8737C15.9374 28.3407 16.2427 27.8823 16.5146 27.5269C17.0467 26.8313 17.8649 26.0133 18.8122 25.0661L18.9425 24.9358C19.3613 24.5168 19.7686 24.1094 20.1488 23.8141C20.5751 23.483 21.1258 23.163 21.842 23.1252C21.9471 23.1197 22.0525 23.1197 22.1576 23.1252C22.8738 23.163 23.4245 23.483 23.8508 23.8141C24.231 24.1094 24.6383 24.5168 25.0571 24.9358L25.1874 25.0661C26.1348 26.0133 26.9529 26.8313 27.4851 27.5269C27.7569 27.8823 28.0622 28.3408 28.2288 28.8738C28.9406 28.7896 29.5185 28.6492 30 28.4151C30.3136 28.2627 30.5862 28.0706 30.8284 27.8284C32 26.6569 32 24.7712 32 21C32 17.2288 32 15.3431 30.8284 14.1716C29.6569 13 27.7712 13 24 13Z" fill="#035E89"/>
</svg>
