<svg width="44" height="44" viewBox="0 0 44 44" fill="none" xmlns="http://www.w3.org/2000/svg">
<rect width="44" height="44" rx="8" fill="#EFF9FF"/>
<path fill-rule="evenodd" clip-rule="evenodd" d="M14 15V29C14 30.6569 15.3431 32 17 32H27C28.6569 32 30 30.6569 30 29V19C30 17.3431 28.6569 16 27 16H15C14.4477 16 14 15.5523 14 15ZM17.25 22C17.25 21.5858 17.5858 21.25 18 21.25H26C26.4142 21.25 26.75 21.5858 26.75 22C26.75 22.4142 26.4142 22.75 26 22.75H18C17.5858 22.75 17.25 22.4142 17.25 22ZM17.25 25.5C17.25 25.0858 17.5858 24.75 18 24.75H23.5C23.9142 24.75 24.25 25.0858 24.25 25.5C24.25 25.9142 23.9142 26.25 23.5 26.25H18C17.5858 26.25 17.25 25.9142 17.25 25.5Z" fill="#035E89"/>
<path d="M14.4088 14.0871C14.7573 14.2434 15 14.5933 15 15H27C27.3453 15 27.6804 15.0438 28 15.126V14.306C28 13.0889 26.922 12.154 25.7172 12.3261L14.9196 13.8686C14.7271 13.8961 14.5527 13.9737 14.4088 14.0871Z" fill="#035E89"/>
</svg>
