<svg width="167" height="45" viewBox="0 0 167 45" fill="none" xmlns="http://www.w3.org/2000/svg">
<path d="M7.00297 14.62C7.0563 14.5933 7.3763 14.58 7.96297 14.58C9.02964 14.6067 9.96297 14.8067 10.763 15.18L11.243 15.46L11.883 15.02L12.483 14.58H12.843C13.083 14.58 13.243 14.62 13.323 14.7L13.443 14.82V17.38V19.94L13.323 20.06L13.203 20.18H12.443H11.683L11.563 20.06C11.483 19.98 11.443 19.8067 11.443 19.54C11.3096 17.86 10.443 16.82 8.84297 16.42C8.2563 16.3133 7.52297 16.3 6.64297 16.38C6.56297 16.4067 6.4963 16.42 6.44297 16.42C5.10964 16.7133 4.40297 17.4067 4.32297 18.5C4.26964 19.3 4.64297 19.94 5.44297 20.42C5.84297 20.66 6.68297 20.9133 7.96297 21.18C9.08297 21.3933 9.6963 21.5267 9.80297 21.58C11.5363 22.0067 12.8296 22.9533 13.683 24.42C13.7363 24.5267 13.7896 24.62 13.843 24.7C14.2163 25.4733 14.4163 26.2067 14.443 26.9C14.4963 28.4733 14.1096 29.7667 13.283 30.78C12.6963 31.58 11.8296 32.1667 10.683 32.54C9.10964 33.0733 7.54964 33.1267 6.00297 32.7C5.22964 32.46 4.60297 32.14 4.12297 31.74L3.92297 31.62L3.20297 32.18C2.50964 32.6867 2.0963 32.94 1.96297 32.94C1.72297 32.94 1.56297 32.9 1.48297 32.82L1.36297 32.7V29.66C1.36297 27.5 1.42964 26.38 1.56297 26.3C1.6163 26.2733 1.8963 26.26 2.40297 26.26C2.96297 26.26 3.26964 26.3267 3.32297 26.46C3.34964 26.5133 3.38964 26.66 3.44297 26.9C4.2163 30.02 5.98964 31.38 8.76297 30.98C10.1496 30.82 11.0163 30.1933 11.363 29.1C11.4163 28.94 11.443 28.6733 11.443 28.3C11.443 27.9267 11.4163 27.66 11.363 27.5C11.203 26.9667 10.8163 26.4867 10.203 26.06C9.7763 25.7667 8.90964 25.4867 7.60297 25.22C6.10964 24.9533 5.04297 24.6467 4.40297 24.3C3.78964 24.0067 3.2563 23.6333 2.80297 23.18C2.40297 22.78 2.06964 22.3133 1.80297 21.78C1.5363 21.22 1.38964 20.6333 1.36297 20.02C1.3363 19.22 1.50964 18.3933 1.88297 17.54C2.12297 17.06 2.40297 16.66 2.72297 16.34C3.54964 15.4333 4.80297 14.8733 6.48297 14.66C6.6163 14.6333 6.78964 14.62 7.00297 14.62ZM16.5052 16.38V15.26H16.7852L18.8252 15.34C19.9985 15.3667 21.2252 15.3667 22.5052 15.34L24.7052 15.26H24.9852V16.38V17.5H24.4652C23.7718 17.5267 23.3852 17.62 23.3052 17.78C23.2785 17.8333 23.7985 19.4333 24.8652 22.58L26.5052 27.26C26.5052 27.2333 26.9452 25.9267 27.8252 23.34L29.1452 19.5L28.8652 18.66C28.6518 18.0733 28.5185 17.7667 28.4652 17.74C28.3318 17.6067 27.8652 17.5267 27.0652 17.5H26.1452V16.38V15.26H26.3852L28.1052 15.34C29.1185 15.3667 30.3185 15.3667 31.7052 15.34C33.2785 15.2867 34.0785 15.26 34.1052 15.26H34.4252V16.38V17.5H33.7452C32.6518 17.5533 32.1052 17.66 32.1052 17.82L35.5052 27.74L38.5452 18.9L38.5052 18.62V18.58C38.3452 17.9933 37.7585 17.6333 36.7452 17.5C36.6918 17.5 36.6385 17.5 36.5852 17.5H36.2252V16.38V15.26H36.5452L38.7452 15.34C40.0518 15.3667 41.1585 15.3667 42.0652 15.34L43.6652 15.26H43.9052V16.38V17.5H43.6652C42.9185 17.5 42.2518 17.6333 41.6652 17.9C41.2385 18.1133 40.9318 18.4067 40.7452 18.78C40.6918 18.8333 39.8785 21.1667 38.3052 25.78C36.7318 30.34 35.9318 32.6333 35.9052 32.66C35.7985 32.82 35.5052 32.9133 35.0252 32.94C34.9985 32.94 34.9452 32.94 34.8652 32.94C34.2252 32.94 33.8385 32.86 33.7052 32.7C33.6252 32.62 32.4652 29.26 30.2252 22.62L28.5052 27.54C27.3852 30.8733 26.7852 32.58 26.7052 32.66C26.6252 32.8467 26.2385 32.94 25.5452 32.94C24.9585 32.9133 24.6118 32.82 24.5052 32.66C24.4785 32.6333 23.6118 30.1533 21.9052 25.22C20.2518 20.34 19.3985 17.8733 19.3452 17.82C19.2118 17.6333 18.6252 17.5267 17.5852 17.5H16.5052V16.38ZM49.2123 5.82C50.1457 5.60667 50.959 5.83333 51.6523 6.5C52.159 7.06 52.4123 7.67333 52.4123 8.34C52.4123 8.76667 52.319 9.16667 52.1323 9.54C51.6523 10.4467 50.8657 10.9267 49.7723 10.98C48.759 10.98 47.999 10.5267 47.4923 9.62C47.279 9.22 47.1723 8.79333 47.1723 8.34C47.1723 7.94 47.2657 7.55333 47.4523 7.18C47.799 6.43333 48.3857 5.98 49.2123 5.82ZM48.9323 15.06C51.1723 14.9 52.239 14.82 52.1323 14.82H52.2523V22.38C52.2523 27.42 52.279 29.9667 52.3323 30.02C52.4123 30.1 52.479 30.14 52.5323 30.14C52.6923 30.22 53.279 30.26 54.2923 30.26H55.0523V31.38V32.5H54.7323L52.4523 32.42C51.119 32.3933 49.7457 32.3933 48.3323 32.42C46.7057 32.4733 45.879 32.5 45.8523 32.5H45.4923V31.38V30.26H46.3323C47.719 30.26 48.4657 30.1667 48.5723 29.98C48.599 29.9533 48.6123 28.1133 48.6123 24.46C48.6123 20.62 48.559 18.5667 48.4523 18.3C48.3723 18.06 48.2123 17.8867 47.9723 17.78C47.599 17.5933 46.9723 17.5 46.0923 17.5H45.6523V16.38V15.26H45.7323L48.9323 15.06ZM66.9052 4.34C67.6252 4.28667 68.1585 4.3 68.5052 4.38C69.6785 4.62 70.4652 5.34 70.8652 6.54C70.9718 6.83333 71.0385 7.14 71.0652 7.46C71.1185 8.18 70.9052 8.78 70.4252 9.26C69.9985 9.66 69.4652 9.86 68.8252 9.86L68.2652 9.82H68.2252C67.1852 9.5 66.6385 8.80666 66.5852 7.74C66.5852 7.66 66.5852 7.58 66.5852 7.5C66.6118 7.12667 66.7318 6.75333 66.9452 6.38L67.0652 6.18H66.7852C65.9852 6.26 65.2785 6.60667 64.6652 7.22C63.9718 7.94 63.5318 8.80667 63.3452 9.82C63.3185 9.98 63.2918 10.9533 63.2652 12.74V15.26H65.3852H67.5052V16.38V17.5H65.4652H63.3852V23.7C63.3852 27.86 63.3985 29.9533 63.4252 29.98C63.5052 30.14 64.2785 30.2333 65.7452 30.26H67.2652V31.38V32.5H66.9052C66.9318 32.5 65.9852 32.4733 64.0652 32.42C62.4118 32.3933 60.8785 32.3933 59.4652 32.42C57.8385 32.4733 57.0118 32.5 56.9852 32.5H56.6252V31.38V30.26H57.4652C58.8518 30.26 59.5985 30.1667 59.7052 29.98C59.7318 29.9533 59.7452 27.86 59.7452 23.7V17.5H58.4252H57.1052V16.38V15.26H58.4252H59.7452V12.74C59.7718 10.9 59.8385 9.82 59.9452 9.5C59.9718 9.44667 60.0118 9.34 60.0652 9.18C60.6518 7.31333 62.0118 5.94 64.1452 5.06C65.0252 4.68666 65.9452 4.44666 66.9052 4.34ZM73.4517 8.18V7.9H74.4517H75.4517V11.58V15.26H78.0517H80.6517V16.38V17.5H78.0517H75.4517V22.82C75.4517 26.4467 75.4651 28.34 75.4917 28.5C75.6517 29.8867 76.1451 30.6733 76.9717 30.86C77.9317 31.1 78.6251 30.6333 79.0517 29.46C79.2117 29.0067 79.3051 28.14 79.3317 26.86V25.26H80.3317H81.3317V26.86C81.3051 27.9533 81.2651 28.6067 81.2117 28.82C80.8384 30.5533 79.9451 31.78 78.5317 32.5C77.6784 32.8733 76.7984 33.0067 75.8917 32.9C73.8117 32.66 72.5051 31.58 71.9717 29.66C71.8117 29.1533 71.7317 28.22 71.7317 26.86C71.7317 27.18 71.7184 25.9133 71.6917 23.06V17.5H70.2117H68.7317V16.58V15.62H69.0517C69.8784 15.54 70.6517 15.1667 71.3717 14.5C71.9584 13.9133 72.4517 13.0867 72.8517 12.02C73.2517 10.7667 73.4517 9.48667 73.4517 8.18ZM87.7186 4.98C90.0119 4.82 91.1053 4.74 90.9986 4.74H91.1586V17.34C91.1586 25.74 91.1719 29.9533 91.1986 29.98C91.3053 30.1667 92.0519 30.26 93.4386 30.26H94.2786V31.38V32.5H93.9186L91.4386 32.42C90.0253 32.3933 88.6119 32.3933 87.1986 32.42L84.7586 32.5H84.3986V31.38V30.26H85.2386C86.6253 30.26 87.3719 30.1667 87.4786 29.98V8.78C87.3719 8.14 87.0386 7.74 86.4786 7.58C86.1853 7.5 85.7319 7.44666 85.1186 7.42H84.3986V6.3V5.18H84.4786L87.7186 4.98ZM103.691 14.66C106.091 14.3667 108.265 15.0333 110.211 16.66C110.398 16.82 110.571 16.98 110.731 17.14C111.131 17.54 111.371 17.8067 111.451 17.94C113.185 20.1533 113.838 22.6333 113.411 25.38C113.385 25.5133 113.358 25.6467 113.331 25.78C112.851 28.26 111.531 30.18 109.371 31.54C108.571 32.0467 107.705 32.42 106.771 32.66C106.158 32.82 105.465 32.9 104.691 32.9C103.891 32.9 103.185 32.82 102.571 32.66C100.065 32.02 98.1847 30.58 96.9314 28.34C96.1847 26.98 95.8114 25.5133 95.8114 23.94C95.8114 21.9933 96.3314 20.2467 97.3714 18.7C98.9181 16.3267 101.025 14.98 103.691 14.66ZM105.331 16.5C103.838 16.2867 102.585 16.66 101.571 17.62C100.771 18.34 100.318 19.5533 100.211 21.26C100.185 21.3667 100.171 21.4867 100.171 21.62C100.065 22.98 100.078 24.58 100.211 26.42C100.318 27.4067 100.505 28.1533 100.771 28.66C101.331 29.8867 102.358 30.62 103.851 30.86C104.358 30.9667 104.878 30.98 105.411 30.9C106.905 30.66 107.958 29.9133 108.571 28.66C108.838 28.1533 109.025 27.4067 109.131 26.42C109.265 25.1933 109.278 23.66 109.171 21.82C109.171 21.74 109.171 21.6733 109.171 21.62C109.065 19.78 108.638 18.4867 107.891 17.74C107.865 17.7133 107.825 17.6733 107.771 17.62C107.105 16.98 106.291 16.6067 105.331 16.5ZM131.291 14.42H132.291C132.958 14.5533 133.451 14.9533 133.771 15.62C134.305 16.6867 134.225 17.5267 133.531 18.14C133.265 18.38 132.931 18.5133 132.531 18.54C131.758 18.5667 131.211 18.2333 130.891 17.54C130.838 17.4067 130.798 17.26 130.771 17.1C130.718 16.8067 130.758 16.62 130.891 16.54L131.451 16.5H131.491L132.051 16.46L132.011 16.38C131.958 16.3267 131.825 16.3 131.611 16.3C130.838 16.3 130.078 16.5667 129.331 17.1L129.171 17.22L129.451 17.58C129.851 18.1133 130.158 18.7133 130.371 19.38C130.638 20.3933 130.638 21.38 130.371 22.34C130.158 23.0067 129.865 23.5933 129.491 24.1C129.091 24.66 128.665 25.1 128.211 25.42C126.451 26.78 124.411 27.2333 122.091 26.78C121.398 26.6467 120.731 26.4333 120.091 26.14L119.651 25.9L119.531 26.18C119.238 26.74 119.198 27.3533 119.411 28.02C119.625 28.6333 120.025 29.0467 120.611 29.26C120.745 29.3133 121.785 29.3533 123.731 29.38C125.971 29.4067 127.425 29.4867 128.091 29.62C129.718 29.86 130.985 30.42 131.891 31.3C132.905 32.2333 133.451 33.5 133.531 35.1C133.558 36.0867 133.251 36.98 132.611 37.78C131.865 38.7133 130.731 39.46 129.211 40.02C126.891 40.8467 124.425 40.9933 121.811 40.46C121.625 40.4333 121.438 40.3933 121.251 40.34C120.505 40.1533 119.785 39.9 119.091 39.58C116.718 38.38 115.625 36.86 115.811 35.02C115.838 34.94 115.851 34.86 115.851 34.78C115.905 34.4867 116.038 34.1133 116.251 33.66C116.651 32.8333 117.278 32.18 118.131 31.7L118.411 31.54L118.131 31.22C117.091 29.8867 116.811 28.3533 117.291 26.62C117.558 25.9533 117.798 25.46 118.011 25.14C118.118 24.98 118.185 24.8867 118.211 24.86C118.211 24.8333 118.158 24.74 118.051 24.58C117.518 24.0467 117.091 23.3 116.771 22.34C116.425 21.0333 116.545 19.7533 117.131 18.5C117.478 17.86 117.851 17.34 118.251 16.94C119.611 15.5267 121.385 14.82 123.571 14.82C125.038 14.82 126.358 15.1667 127.531 15.86C127.691 15.9667 127.785 16.02 127.811 16.02L128.091 15.78C128.998 15.0333 130.065 14.58 131.291 14.42ZM124.171 16.78C122.811 16.5933 121.798 16.9133 121.131 17.74C121.051 17.8467 120.985 17.9533 120.931 18.06C120.718 18.5133 120.611 19.4467 120.611 20.86C120.611 22.3 120.718 23.2333 120.931 23.66C121.251 24.4067 121.931 24.8467 122.971 24.98C124.331 25.1667 125.345 24.8467 126.011 24.02C126.091 23.9133 126.158 23.7933 126.211 23.66C126.451 23.18 126.571 22.2467 126.571 20.86C126.571 19.5 126.451 18.5667 126.211 18.06C125.865 17.34 125.185 16.9133 124.171 16.78ZM126.291 32.74C126.078 32.7133 125.105 32.7 123.371 32.7C121.638 32.7 120.611 32.78 120.291 32.94C119.838 33.18 119.478 33.5533 119.211 34.06C119.025 34.4333 118.931 34.86 118.931 35.34C118.931 35.6867 118.958 35.9267 119.011 36.06C119.358 37.02 120.265 37.78 121.731 38.34C122.611 38.6333 123.598 38.78 124.691 38.78C125.758 38.78 126.745 38.6333 127.651 38.34C129.038 37.8333 129.931 37.0733 130.331 36.06C130.465 35.66 130.478 35.2333 130.371 34.78C129.945 33.58 128.585 32.9 126.291 32.74ZM139.251 5.82C140.185 5.60667 140.998 5.83333 141.691 6.5C142.198 7.06 142.451 7.67333 142.451 8.34C142.451 8.76667 142.358 9.16667 142.171 9.54C141.691 10.4467 140.905 10.9267 139.811 10.98C138.798 10.98 138.038 10.5267 137.531 9.62C137.318 9.22 137.211 8.79333 137.211 8.34C137.211 7.94 137.305 7.55333 137.491 7.18C137.838 6.43333 138.425 5.98 139.251 5.82ZM138.971 15.06C141.211 14.9 142.278 14.82 142.171 14.82H142.291V22.38C142.291 27.42 142.318 29.9667 142.371 30.02C142.451 30.1 142.518 30.14 142.571 30.14C142.731 30.22 143.318 30.26 144.331 30.26H145.091V31.38V32.5H144.771L142.491 32.42C141.158 32.3933 139.785 32.3933 138.371 32.42C136.745 32.4733 135.918 32.5 135.891 32.5H135.531V31.38V30.26H136.371C137.758 30.26 138.505 30.1667 138.611 29.98C138.638 29.9533 138.651 28.1133 138.651 24.46C138.651 20.62 138.598 18.5667 138.491 18.3C138.411 18.06 138.251 17.8867 138.011 17.78C137.638 17.5933 137.011 17.5 136.131 17.5H135.691V16.38V15.26H135.771L138.971 15.06ZM146.464 16.38V15.26H146.744L148.864 15.34C150.091 15.3667 151.438 15.3667 152.904 15.34L155.424 15.26H155.744V16.38V17.5L155.304 17.54C155.091 17.54 154.864 17.58 154.624 17.66C154.438 17.7133 154.344 17.78 154.344 17.86C154.344 17.9667 154.731 18.5533 155.504 19.62L156.664 21.26C156.718 21.26 157.011 20.8733 157.544 20.1C158.238 19.1933 158.571 18.6067 158.544 18.34C158.464 17.8867 158.184 17.62 157.704 17.54L157.464 17.5V16.38V15.26H157.744L160.024 15.34C162.531 15.3933 164.371 15.3667 165.544 15.26H165.824V16.38V17.5H165.464C164.958 17.5 164.331 17.5533 163.584 17.66C162.411 17.8733 161.571 18.2467 161.064 18.78C160.878 18.9667 160.318 19.7133 159.384 21.02L157.904 23.02L158.104 23.34L162.784 29.94C162.891 30.0467 163.011 30.1 163.144 30.1C163.384 30.2067 164.184 30.26 165.544 30.26H166.504V31.38V32.5H166.224C164.944 32.3933 162.891 32.3667 160.064 32.42L157.544 32.5H157.184V31.38V30.26H157.504C158.224 30.2067 158.611 30.0867 158.664 29.9C158.664 29.8733 158.198 29.1933 157.264 27.86C156.358 26.58 155.864 25.94 155.784 25.94L153.624 28.9C153.491 29.14 153.491 29.4067 153.624 29.7C153.784 30.0467 154.091 30.2333 154.544 30.26H154.624V31.38V32.5H154.304L152.024 32.42C150.718 32.3933 149.518 32.3933 148.424 32.42C147.171 32.4733 146.531 32.5 146.504 32.5H146.264V31.38V30.26H146.944C149.051 30.18 150.438 29.7267 151.104 28.9C151.158 28.82 151.758 28.0067 152.904 26.46C154.024 24.94 154.584 24.1667 154.584 24.14L152.384 20.94C150.918 18.86 150.091 17.7667 149.904 17.66C149.851 17.6333 149.718 17.6067 149.504 17.58L147.824 17.5H146.464V16.38Z" fill="#035E89"/>
<ellipse cx="104.5" cy="23.5" rx="5.5" ry="8" fill="#035E89"/>
</svg>
